# xmcd CD database file
# Copyright (C) 1995-1998 Ti Kan
#
# Track frame offsets:
#	150
#	12925
#	25107
#	41872
#	56627
#	71377
#	87210
#	99355
#
# Disc length: 1554 seconds
#
# Revision: 1
# Processed by: cddbd v1.4b41PL1 Copyright (c) Steve Scherf et al.
# Submitted via: CDex 1.30Release
#
DISCID=5c061008
DTITLE=Danny Shirley - Far From Over
DYEAR=1990
DGENRE=Country
TTITLE0=Sweet Lisa
TTITLE1=Kankakee Line
TTITLE2=I Don't Have The Heart
TTITLE3=Redman
TTITLE4=Pinball
TTITLE5=Far From Over
TTITLE6=Home To Mama
TTITLE7=Southbound
EXTD=YEAR: 1990 ID3G:   2
EXTT0=
EXTT1=
EXTT2=
EXTT3=
EXTT4=
EXTT5=
EXTT6=
EXTT7=
PLAYORDER=
